<svg xmlns="http://www.w3.org/2000/svg" display="none">
  <symbol viewBox="0 0 780.012 750.021" id="adobe">
    <path d="M522.647 0h306.517v733.828zM306.693 0H0v733.828zm-26.046 586.185l134.059-315.79L609.98 733.788H482.033l-58.415-147.603z"></path>
  </symbol>
  <symbol viewBox="0 0 266 100" id="facebook">
    <path d="M140.021 49.597c-1.784 0-3.07.585-4.374 1.181v13.486c1.249.119 1.965.119 3.15.119 4.282 0 4.869-1.961 4.869-4.699v-6.441c0-2.022-.671-3.646-3.645-3.646zm-28.438-.736c-2.971 0-3.649 1.631-3.649 3.651v1.135h7.294v-1.135c0-2.02-.678-3.651-3.645-3.651zm-55.09 14.037c0 1.598.754 2.428 2.418 2.428 1.785 0 2.842-.582 4.145-1.18v-3.199h-3.903c-1.848 0-2.66.344-2.66 1.951zm111.191-13.301c-2.976 0-4.007 1.624-4.007 3.646v7.379c0 2.027 1.031 3.656 4.007 3.656 2.968 0 4.007-1.629 4.007-3.656v-7.379c-.001-2.022-1.04-3.646-4.007-3.646zM41.909 71.172h-8.748V49.998H28.79v-7.296h4.372V38.32c0-5.953 2.467-9.492 9.479-9.492h5.838v7.298H44.83c-2.73 0-2.91 1.02-2.91 2.923l-.011 3.652h6.61l-.773 7.296h-5.837v21.175zm29.897.055h-7.291l-.315-1.844c-3.329 1.844-6.3 2.143-8.26 2.143-5.347 0-8.193-3.572-8.193-8.512 0-5.828 3.321-7.908 9.262-7.908h6.047v-1.26c0-2.975-.341-3.848-4.916-3.848h-7.48l.731-7.296h8.176c10.038 0 12.239 3.171 12.239 11.203v17.322zm24.793-20.694c-4.537-.778-5.84-.949-8.023-.949-3.921 0-5.106.865-5.106 4.195v6.299c0 3.33 1.185 4.199 5.106 4.199 2.183 0 3.486-.174 8.023-.955v7.117c-3.974.891-6.563 1.125-8.751 1.125-9.392 0-13.125-4.939-13.125-12.074v-5.111c0-7.141 3.733-12.089 13.125-12.089 2.188 0 4.777.235 8.751 1.13v7.113zm27.376 8.957h-16.042v.588c0 3.33 1.186 4.199 5.106 4.199 3.524 0 5.675-.174 10.204-.955v7.117c-4.368.891-6.644 1.125-10.929 1.125-9.393 0-13.128-4.939-13.128-12.074v-5.844c0-6.243 2.771-11.356 12.396-11.356s12.393 5.054 12.393 11.356v5.844zm28.437.135c0 6.896-1.971 11.926-13.911 11.926-4.312 0-6.841-.379-11.6-1.111V31.02l8.745-1.459V43.35c1.89-.702 4.336-1.059 6.562-1.059 8.746 0 10.203 3.921 10.203 10.222v7.112zm28.033.15c0 5.949-2.456 11.719-12.732 11.719-10.281 0-12.783-5.77-12.783-11.719v-5.744c0-5.952 2.502-11.723 12.783-11.723 10.276 0 12.732 5.771 12.732 11.723v5.744zm28.014 0c0 5.949-2.459 11.719-12.733 11.719-10.281 0-12.783-5.77-12.783-11.719v-5.744c0-5.952 2.502-11.723 12.783-11.723 10.274 0 12.733 5.771 12.733 11.723v5.744zm28.749 11.397h-9.479l-8.017-13.383v13.383h-8.748V31.019l8.748-1.459v25.849l8.017-12.707h9.479l-8.752 13.867 8.752 14.603zm-41.512-21.575c-2.971 0-4.002 1.624-4.002 3.646v7.379c0 2.027 1.031 3.656 4.002 3.656 2.967 0 4.017-1.629 4.017-3.656v-7.379c0-2.022-1.05-3.646-4.017-3.646zm46.505 16.581c1.473 0 2.646 1.201 2.646 2.701 0 1.523-1.174 2.711-2.657 2.711-1.476 0-2.673-1.188-2.673-2.711 0-1.5 1.197-2.701 2.673-2.701h.011zm-.011.42c-1.187 0-2.158 1.021-2.158 2.281 0 1.283.972 2.291 2.169 2.291 1.198.012 2.155-1.008 2.155-2.279s-.957-2.293-2.155-2.293h-.011zm-.503 3.853h-.48v-3.014c.252-.035.492-.07.852-.07.456 0 .754.096.937.227.177.133.272.336.272.623 0 .398-.262.637-.585.734v.023c.263.049.442.287.503.73.07.469.143.648.19.746h-.503c-.071-.098-.144-.373-.204-.77-.07-.383-.264-.527-.648-.527h-.333v1.298zm0-1.668h.348c.394 0 .729-.145.729-.518 0-.264-.19-.527-.729-.527-.157 0-.266.012-.348.023v1.022z"></path>
  </symbol>
  <symbol viewBox="0 0 30.499 10.307" id="google">
		<path d="M29.725 2.417h.189l.003.007c.062.135.121.279.182.433l.003.007c.062-.146.11-.252.156-.356.009-.02.01-.024.01-.031 0-.018-.018-.018-.034-.018l-.069.003.069-.045h.255l-.018.017c-.019.017-.028.029-.028.062l.002.034c.008.1.018.215.037.346.02.103.038.114-.052.114-.017 0-.047 0-.075-.021-.075-.059-.05-.256-.065-.427l-.001-.009-.005.01c-.053.123-.143.327-.16.375l.009.024a1.895 1.895 0 0 0-.147.048c-.025-.07-.115-.3-.186-.458-.014.133-.022.222-.035.384 0 .017.004.021.035.025l.069.01-.041.025h-.147l.021-.025a.048.048 0 0 0 .01-.017 15.64 15.64 0 0 0 .05-.423l.001-.025c0-.021-.008-.031-.032-.031l-.074.001.068-.039z"/>
		<path d="M29.689 2.417l-.035.081-.036.016a.533.533 0 0 0 .009-.041c0-.018-.021-.019-.044-.019l-.11.001c-.009.31-.009.336-.009.378l.001.067c.002.034.013.042.05.043l.067.007-.051.025h-.265l.018-.025c.017-.026.02-.03.02-.047 0-.151.003-.287.007-.422l-.001-.027h-.097c-.048.001-.049.003-.075.043l-.042.016.042-.097h.551z"/>
		<path d="M28.663 6.946c-.112.061-.224.132-.335.183a2.352 2.352 0 0 1-.985.193c-.325 0-.833-.021-1.351-.396-.721-.508-1.036-1.381-1.036-2.143 0-1.574 1.279-2.346 2.325-2.346.366 0 .742.091 1.046.285.507.334.64.772.71 1.005l-2.386.964-.781.061c.254 1.29 1.127 2.041 2.092 2.041.518 0 .894-.183 1.239-.355l-.538.508zm-.955-3.026c.193-.071.294-.132.294-.274 0-.406-.457-.874-1.005-.874-.406 0-1.168.315-1.168 1.412 0 .172.02.355.031.538l1.848-.802z"/>
		<path d="M24.712 7.169h-1.797c.233-.305.274-.335.274-.538V4.976c0-.792.01-1.92.041-2.976.01-.518.051-1.168.061-1.635h-.792L23.26 0h1.452c-.314.183-.416.244-.457.599-.082.782-.092 2.021-.092 3.463v2.346c0 .396.071.457.406.487.173.021.346.031.518.051l-.375.223z"/>
		<path d="M21.381 2.935c.233.192.721.599.721 1.371 0 .751-.426 1.107-.853 1.442-.132.132-.285.274-.285.498 0 .223.152.345.264.436l.366.285c.447.375.853.721.853 1.422 0 .955-.924 1.919-2.671 1.919-1.473 0-2.184-.7-2.184-1.452 0-.366.183-.883.782-1.239.629-.386 1.482-.437 1.939-.467-.142-.183-.305-.375-.305-.69 0-.173.051-.274.102-.396-.11.009-.221.019-.323.019-1.076 0-1.686-.803-1.686-1.594 0-.467.213-.985.65-1.361.579-.477 1.269-.558 1.817-.558h2.092l-.65.366h-.629zm-.721 4.508c-.081-.01-.132-.01-.233-.01-.091 0-.64.02-1.066.163-.223.081-.873.325-.873 1.046 0 .721.701 1.238 1.787 1.238.975 0 1.493-.467 1.493-1.096-.001-.518-.336-.792-1.108-1.341zm.295-1.929c.233-.234.253-.559.253-.741 0-.731-.437-1.869-1.279-1.869a.95.95 0 0 0-.711.335c-.173.213-.224.488-.224.751 0 .68.396 1.808 1.27 1.808.254 0 .528-.122.691-.284z"/>
		<path d="M15.085 7.301c-1.615 0-2.478-1.259-2.478-2.396 0-1.33 1.086-2.468 2.63-2.468 1.493 0 2.427 1.168 2.427 2.396.001 1.199-.923 2.468-2.579 2.468zm1.269-.822c.244-.325.305-.731.305-1.127 0-.894-.427-2.6-1.686-2.6-.335 0-.67.132-.914.345-.396.355-.467.802-.467 1.239 0 1.005.498 2.66 1.727 2.66.396.001.802-.192 1.035-.517z"/>
		<path d="M9.683 7.301c-1.615 0-2.478-1.259-2.478-2.396 0-1.33 1.086-2.468 2.63-2.468 1.493 0 2.427 1.168 2.427 2.396 0 1.199-.924 2.468-2.579 2.468zm1.269-.822c.244-.325.305-.731.305-1.127 0-.894-.427-2.6-1.686-2.6-.335 0-.67.132-.914.345-.396.356-.467.802-.467 1.239 0 1.005.498 2.66 1.727 2.66.395.001.801-.192 1.035-.517z"/>
		<path d="M6.559 6.947l-1.361.314c-.552.086-1.047.162-1.571.162C1 7.423 0 5.491 0 3.977 0 2.13 1.418.416 3.846.416a5.49 5.49 0 0 1 1.457.2c.714.2 1.047.448 1.256.591l-.79.752-.333.076.238-.381C5.35 1.339 4.76.759 3.637.759 2.132.759 1 1.901 1 3.567c0 1.79 1.295 3.475 3.37 3.475.609 0 .923-.124 1.209-.238V5.271l-1.438.077.762-.41h2.018l-.248.238c-.066.057-.076.076-.095.153-.019.361-.019 1.618-.019 1.618z"/>
	</symbol>
  <symbol viewBox="0 0 192.756 192.756" id="nike">
      <path d="M42.741 71.477c-9.881 11.604-19.355 25.994-19.45 36.75-.037 4.047 1.255 7.58 4.354 10.256 4.46 3.854 9.374 5.213 14.264 5.221 7.146.01 14.242-2.873 19.798-5.096 9.357-3.742 112.79-48.659 112.79-48.659.998-.5.811-1.123-.438-.812-.504.126-112.603 30.505-112.603 30.505a24.771 24.771 0 0 1-6.524.934c-8.615.051-16.281-4.731-16.219-14.808.024-3.943 1.231-8.698 4.028-14.291z"></path>
  </symbol>
  <symbol viewBox="1.464 25.444 498.152 149.23" id="slack">
    <path d="M178.463 83.987c0-14.818 10.804-25.165 30.438-25.165 11.98 0 21.783 3.825 27.094 7.572.76.535 2.116 1.833 1.303 4.247-1.042 2.6-2.953 6.51-4.324 9.05-.798 1.48-2.836 1.285-3.88.756-3.783-1.917-9.988-5.16-15.688-5.758a33.378 33.378 0 0 0-4.347-.188c-5.02.112-9.214 1.855-10.691 5.685a6.74 6.74 0 0 0-.477 2.274c-.138 5.047 6.886 6.872 15.395 8.334 15.819 2.71 27.787 7.348 27.787 23.63 0 13.827-10.989 26.323-32.52 25.94-14.194-.287-24.264-5.083-29.66-9.737-.184-.158-2.238-2.25-1.137-4.766 1.26-3.239 3.387-6.951 5.056-8.922.928-1.266 3.377-1.467 4.65-.678 4.448 2.764 11.768 7.196 20.206 7.49.666.023 1.326.027 1.974.01 7.59-.184 12.182-3.062 12.086-7.91-.082-4.271-6.1-6.766-15.683-8.572-15.284-2.879-27.58-7.917-27.58-23.292m138.851 21.099c-10.778.141-20.66 3.087-20.945 11.51-.003 6.684 5.419 9.967 13.029 9.537 7.3-.703 12.867-3.869 15.32-8.07.907-1.557 1.045-7.383.99-9.873-.014-.53-1.062-1.533-1.521-1.726-2.29-.965-3.985-1.263-6.874-1.38m-35.862-33.938c5.04-4.51 15.033-11.53 30.959-11.16 21.017.437 32.12 10.29 33.154 33.86.426 9.72-.28 36.832-.448 43.587-.025.969-.353 1.639-1.659 1.664-3.461.139-11.457.084-15.131.036-1.854-.09-2.069-1.01-2.093-1.973-.016-.63-.07-2.498-.109-4.021-.021-.808-.78-.785-.974-.578-4.93 5.264-13.004 7.806-21.59 7.806-13.05 0-26.06-7.677-26.02-22.88.04-15.57 11.08-23.25 23.208-25.061 7.766-1.156 16.52-.128 23.149 2.506.424.17 1.29-.076 1.297-.677.027-1.984-.069-5.765-.45-7.557-.973-4.566-4.782-8.24-12.784-9.23-1.648-.203-3.307-.27-4.968-.138-6.361.5-14.016 5.46-17.186 7.317-.746.436-1.914.117-2.292-.37-1.85-2.39-6.5-9.38-6.866-10.497-.366-1.114.15-2.052.801-2.638l.002.004zm71.043 28.984c-.125-21.715 15.005-40.034 39.573-40.195 15.33-.1 26.467 6.85 28.431 10.128.399.77.194 1.413-.082 2.188-1.298 2.74-4.576 8.034-6.912 11.034-.995 1.278-2.075.183-3.33-.652-3.483-2.32-10.101-5.157-16.614-5.157-11.816.002-20.615 8.104-20.517 23.01.092 14.304 8.52 22.165 20.558 22.45 6.293.158 12.39-3.459 15.67-6.422 1.03-.899 2.096-.449 3.273.471 2.31 2.361 5.623 6.006 7.46 8.515 1.203 1.394.303 2.758-.13 3.306-4.984 6.307-14.61 11.615-27.349 11.687-26.674.187-39.906-18.568-40.029-40.36m127.325 39.381c1.252-.094 14.613-1.938 18.714-2.877 1.018-.232 1.38-1.088.811-1.936-2.29-3.434-8.311-13.186-14.617-21.916-5.8-8.027-11.913-15.087-13.89-17.803-.482-.66-.456-1.31.069-1.822 3.761-3.68 19.493-19.105 25.408-25.475 2.29-2.478.915-3.544-1.03-4.123-3.757-1.12-9.834-2.516-13.29-3.245-1.457-.308-3.212-.2-4.486 1.11-5.914 5.515-23.963 23.63-29.351 29.045-.97.977-1.535.76-1.54-.636-.044-10.44-.25-55.138-.623-62.49-.026-.972-1.195-1.71-1.854-1.745-3.388-.177-11.947-.228-15.32-.03-.945.107-1.848 1.07-1.93 1.884-.778 11.756.33 98.054.792 110.126.033.873.683 1.55 1.512 1.599 3.365.195 11.688.182 15.574.109 1.912 0 2.146-1.344 2.146-1.344l.288-23.157s.197-1.03.516-1.37c1.37-1.475 5.16-5.537 6.776-7.107.388-.377 1-.35 1.396.183 1.92 2.59 7.395 11.01 12.47 18.53 4.663 6.908 9.016 13.039 9.32 13.472.702 1 1.522 1.04 2.14 1.021v-.003zm-227.233-.08c1.175.039 10.09.029 14.04.024 1.33.026 2.021-.981 2.065-1.87.839-16.926.48-97.512-.05-110.237-.044-1.1-.515-1.513-1.266-1.613-3.39-.454-13.024-.348-16.112.46-.604.157-.96.616-.979 1.206-.756 32.8-.246 108.42-.086 109.852.159 1.434.909 2.128 2.39 2.178h-.002z"></path>
    <path d="M13.997 105.78c-5.494.042-10.148-3.232-11.864-8.342a13.67 13.67 0 0 1-.178-.583c-1.87-6.544 1.756-13.39 8.255-15.582L114.45 46.35a14.128 14.128 0 0 1 3.807-.556c5.64-.044 10.422 3.302 12.18 8.52l.156.504c1.95 6.816-2.895 12.9-8.7 14.85-.004.003-1.06.36-103.662 35.391a13.49 13.49 0 0 1-4.234.721z"></path>
    <path d="M31.372 157.045c-5.537.04-10.207-3.188-11.903-8.225a13.34 13.34 0 0 1-.18-.579c-1.896-6.622 1.726-13.54 8.247-15.735L131.78 97.263c1.347-.45 2.738-.68 4.137-.693 5.552-.042 10.43 3.35 12.151 8.444l.16.53c1.007 3.521.412 7.478-1.59 10.601-1.492 2.322-6.198 4.366-6.198 4.366L35.8 156.29a14.356 14.356 0 0 1-4.428.757v-.002z"></path>
    <path d="M118.148 157.268a12.798 12.798 0 0 1-12.255-8.723l-34.79-103.34-.174-.58c-1.885-6.59 1.74-13.464 8.237-15.654 1.3-.437 2.644-.665 3.997-.677 2.01-.015 3.955.438 5.787 1.343a12.772 12.772 0 0 1 6.449 7.392l34.787 103.331.101.332c1.954 6.842-1.663 13.72-8.16 15.91a12.935 12.935 0 0 1-3.979.666z"></path>
    <path d="M66.435 174.674a12.803 12.803 0 0 1-12.26-8.73L19.394 62.608a12.797 12.797 0 0 1 8.051-16.23 12.96 12.96 0 0 1 3.985-.668 12.796 12.796 0 0 1 12.257 8.723l34.782 103.34a12.797 12.797 0 0 1-8.06 16.233 12.88 12.88 0 0 1-3.978.667h.004z"></path>
    <path d="M100.997 133.996l24.258-8.294-7.93-23.55-24.286 8.207 7.958 23.637z"></path>
    <path d="M49.364 151.65l24.256-8.293-7.99-23.73-24.28 8.21 8.014 23.813z"></path>
    <path d="M83.727 82.7l24.26-8.283-7.837-23.275-24.305 8.143L83.727 82.7z"></path>
    <path d="M32.088 100.33l24.26-8.283-7.933-23.572-24.305 8.142 7.978 23.713z"></path>
  </symbol>
  <symbol viewBox="0.253 0.277 558.427 167.483" id="spotify">
    <path d="M83.996.277C37.747.277.253 37.77.253 84.019c0 46.251 37.494 83.741 83.743 83.741 46.254 0 83.744-37.49 83.744-83.741 0-46.246-37.49-83.738-83.745-83.738l.001-.004zm38.404 120.78a5.217 5.217 0 0 1-7.18 1.73c-19.662-12.01-44.414-14.73-73.564-8.07a5.222 5.222 0 0 1-6.249-3.93 5.213 5.213 0 0 1 3.926-6.25c31.9-7.288 59.263-4.15 81.337 9.34 2.46 1.51 3.24 4.72 1.73 7.18zm10.25-22.802c-1.89 3.072-5.91 4.042-8.98 2.152-22.51-13.836-56.823-17.843-83.448-9.761-3.453 1.043-7.1-.903-8.148-4.35a6.538 6.538 0 0 1 4.354-8.143c30.413-9.228 68.222-4.758 94.072 11.127 3.07 1.89 4.04 5.91 2.15 8.976zm.88-23.744c-26.99-16.031-71.52-17.505-97.289-9.684-4.138 1.255-8.514-1.081-9.768-5.219a7.835 7.835 0 0 1 5.221-9.771c29.581-8.98 78.756-7.245 109.83 11.202a7.823 7.823 0 0 1 2.74 10.733c-2.2 3.722-7.02 4.949-10.73 2.739zm94.56 3.072c-14.46-3.448-17.03-5.868-17.03-10.953 0-4.804 4.52-8.037 11.25-8.037 6.52 0 12.98 2.455 19.76 7.509.2.153.46.214.71.174a.933.933 0 0 0 .63-.386l7.06-9.952a.95.95 0 0 0-.18-1.288c-8.07-6.473-17.15-9.62-27.77-9.62-15.61 0-26.52 9.369-26.52 22.774 0 14.375 9.41 19.465 25.67 23.394 13.83 3.187 16.17 5.857 16.17 10.629 0 5.29-4.72 8.58-12.32 8.58-8.44 0-15.33-2.85-23.03-9.51a.98.98 0 0 0-.69-.23c-.26.02-.49.14-.65.33l-7.92 9.42c-.33.4-.29.98.09 1.32 8.96 8 19.98 12.22 31.88 12.22 16.82 0 27.69-9.19 27.69-23.42.03-12.007-7.16-18.657-24.77-22.941zm62.86-14.26c-7.29 0-13.27 2.872-18.21 8.757v-6.624a.945.945 0 0 0-.94-.949h-12.95c-.52 0-.94.426-.94.949v73.601c0 .52.42.95.94.95h12.95c.52 0 .94-.43.94-.95v-23.23c4.94 5.53 10.92 8.24 18.21 8.24 13.55 0 27.27-10.43 27.27-30.369.02-19.943-13.7-30.376-27.26-30.376zm12.21 30.375c0 10.149-6.25 17.239-15.21 17.239-8.85 0-15.53-7.41-15.53-17.239 0-9.83 6.68-17.238 15.53-17.238 8.81-.001 15.21 7.247 15.21 17.237zm50.21-30.375c-17.45 0-31.12 13.436-31.12 30.592 0 16.972 13.58 30.262 30.91 30.262 17.51 0 31.22-13.39 31.22-30.479 0-17.031-13.62-30.373-31.01-30.373zm0 47.714c-9.28 0-16.28-7.46-16.28-17.344 0-9.929 6.76-17.134 16.07-17.134 9.34 0 16.38 7.457 16.38 17.351 0 9.927-6.8 17.127-16.17 17.127zm68.27-46.53h-14.25V49.941a.944.944 0 0 0-.94-.948H393.5c-.52 0-.95.426-.95.948v14.566h-6.22c-.52 0-.94.426-.94.949v11.127c0 .522.42.949.94.949h6.22v28.795c0 11.63 5.79 17.53 17.22 17.53 4.64 0 8.49-.96 12.12-3.02.3-.16.48-.48.48-.82v-10.6c0-.32-.17-.63-.45-.8a.918.918 0 0 0-.92-.04c-2.49 1.25-4.9 1.83-7.6 1.83-4.15 0-6.01-1.89-6.01-6.11v-26.76h14.25c.52 0 .94-.426.94-.949V65.462a.918.918 0 0 0-.93-.949zm49.64.057v-1.789c0-5.263 2.02-7.61 6.54-7.61 2.7 0 4.87.536 7.3 1.346.3.094.61.047.85-.132a.94.94 0 0 0 .39-.77v-10.91a.937.937 0 0 0-.67-.909c-2.56-.763-5.84-1.546-10.76-1.546-11.95 0-18.28 6.734-18.28 19.467v2.74h-6.22c-.52 0-.95.426-.95.948v11.184c0 .522.43.949.95.949h6.22v44.405c0 .53.43.95.95.95h12.94c.53 0 .95-.42.95-.95V77.535h12.09l18.52 44.402c-2.1 4.66-4.17 5.59-6.99 5.59-2.28 0-4.69-.68-7.14-2.03a1.03 1.03 0 0 0-.75-.07c-.25.09-.46.27-.56.51l-4.39 9.63c-.21.46-.03.99.41 1.23 4.58 2.48 8.71 3.54 13.82 3.54 9.56 0 14.85-4.46 19.5-16.44l22.46-58.037a.925.925 0 0 0-.1-.881.924.924 0 0 0-.77-.412h-13.48c-.41 0-.77.257-.9.636l-13.81 39.434-15.12-39.46a.944.944 0 0 0-.88-.61h-22.12zm-28.78-.057h-12.95c-.52 0-.95.426-.95.949v56.481c0 .53.43.95.95.95h12.95c.52 0 .95-.42.95-.95V65.46a.947.947 0 0 0-.95-.949zm-6.4-25.719c-5.13 0-9.29 4.152-9.29 9.281 0 5.132 4.16 9.289 9.29 9.289s9.28-4.157 9.28-9.289c0-5.128-4.16-9.281-9.28-9.281zm113.42 43.88c-5.12 0-9.11-4.115-9.11-9.112s4.04-9.159 9.16-9.159 9.11 4.114 9.11 9.107c0 4.997-4.04 9.164-9.16 9.164zm.05-17.365c-4.67 0-8.2 3.71-8.2 8.253 0 4.541 3.51 8.201 8.15 8.201 4.67 0 8.2-3.707 8.2-8.253 0-4.541-3.51-8.201-8.15-8.201zm2.02 9.138l2.58 3.608h-2.18l-2.32-3.31h-1.99v3.31h-1.82v-9.564h4.26c2.23 0 3.69 1.137 3.69 3.051.01 1.568-.9 2.526-2.21 2.905zm-1.54-4.315h-2.37v3.025h2.37c1.18 0 1.89-.579 1.89-1.514 0-.984-.71-1.511-1.89-1.511z"></path>
  </symbol>
	<symbol viewBox="0 0 304.36 304.36" id="twitter">
	<path d="M261.945,175.576c10.096,9.857,20.752,19.131,29.807,29.982 c4,4.822,7.787,9.798,10.684,15.394c4.105,7.955,0.387,16.709-6.746,17.184l-44.34-0.02c-11.436,0.949-20.559-3.655-28.23-11.474	c-6.139-6.253-11.824-12.908-17.727-19.372c-2.42-2.642-4.953-5.128-7.979-7.093c-6.053-3.929-11.307-2.726-14.766,3.587	c-3.523,6.421-4.322,13.531-4.668,20.687c-0.475,10.441-3.631,13.186-14.119,13.664c-22.414,1.057-43.686-2.334-63.447-13.641	c-17.422-9.968-30.932-24.04-42.691-39.971C34.828,153.482,17.295,119.395,1.537,84.353C-2.01,76.458,0.584,72.22,9.295,72.07	c14.465-0.281,28.928-0.261,43.41-0.02c5.879,0.086,9.771,3.458,12.041,9.012c7.826,19.243,17.402,37.551,29.422,54.521	c3.201,4.518,6.465,9.036,11.113,12.216c5.142,3.521,9.057,2.354,11.476-3.374c1.535-3.632,2.207-7.544,2.553-11.434	c1.146-13.383,1.297-26.743-0.713-40.079c-1.234-8.323-5.922-13.711-14.227-15.286c-4.238-0.803-3.607-2.38-1.555-4.799	c3.564-4.172,6.916-6.769,13.598-6.769h50.111c7.889,1.557,9.641,5.101,10.721,13.039l0.043,55.663	c-0.086,3.073,1.535,12.192,7.07,14.226c4.43,1.448,7.35-2.096,10.008-4.905c11.998-12.734,20.561-27.783,28.211-43.366	c3.395-6.852,6.314-13.968,9.143-21.078c2.096-5.276,5.385-7.872,11.328-7.757l48.229,0.043c1.43,0,2.877,0.021,4.262,0.258	c8.127,1.385,10.354,4.881,7.844,12.817c-3.955,12.451-11.65,22.827-19.174,33.251c-8.043,11.129-16.645,21.877-24.621,33.072	C252.26,161.544,252.842,166.697,261.945,175.576L261.945,175.576z M261.945,175.576"/>
	</symbol>
  </symbol>
	<symbol viewBox="0 0 304.36 304.36" id="vk">
	<path d="M261.945,175.576c10.096,9.857,20.752,19.131,29.807,29.982 c4,4.822,7.787,9.798,10.684,15.394c4.105,7.955,0.387,16.709-6.746,17.184l-44.34-0.02c-11.436,0.949-20.559-3.655-28.23-11.474	c-6.139-6.253-11.824-12.908-17.727-19.372c-2.42-2.642-4.953-5.128-7.979-7.093c-6.053-3.929-11.307-2.726-14.766,3.587	c-3.523,6.421-4.322,13.531-4.668,20.687c-0.475,10.441-3.631,13.186-14.119,13.664c-22.414,1.057-43.686-2.334-63.447-13.641	c-17.422-9.968-30.932-24.04-42.691-39.971C34.828,153.482,17.295,119.395,1.537,84.353C-2.01,76.458,0.584,72.22,9.295,72.07	c14.465-0.281,28.928-0.261,43.41-0.02c5.879,0.086,9.771,3.458,12.041,9.012c7.826,19.243,17.402,37.551,29.422,54.521	c3.201,4.518,6.465,9.036,11.113,12.216c5.142,3.521,9.057,2.354,11.476-3.374c1.535-3.632,2.207-7.544,2.553-11.434	c1.146-13.383,1.297-26.743-0.713-40.079c-1.234-8.323-5.922-13.711-14.227-15.286c-4.238-0.803-3.607-2.38-1.555-4.799	c3.564-4.172,6.916-6.769,13.598-6.769h50.111c7.889,1.557,9.641,5.101,10.721,13.039l0.043,55.663	c-0.086,3.073,1.535,12.192,7.07,14.226c4.43,1.448,7.35-2.096,10.008-4.905c11.998-12.734,20.561-27.783,28.211-43.366	c3.395-6.852,6.314-13.968,9.143-21.078c2.096-5.276,5.385-7.872,11.328-7.757l48.229,0.043c1.43,0,2.877,0.021,4.262,0.258	c8.127,1.385,10.354,4.881,7.844,12.817c-3.955,12.451-11.65,22.827-19.174,33.251c-8.043,11.129-16.645,21.877-24.621,33.072	C252.26,161.544,252.842,166.697,261.945,175.576L261.945,175.576z M261.945,175.576"/>
	</symbol>
  </symbol>
	<symbol viewBox="0 0 96.124 96.123" id="fb">
	<path d="M72.089,0.02L59.624,0C45.62,0,36.57,9.285,36.57,23.656v10.907H24.037c-1.083,0-1.96,0.878-1.96,1.961v15.803
		c0,1.083,0.878,1.96,1.96,1.96h12.533v39.876c0,1.083,0.877,1.96,1.96,1.96h16.352c1.083,0,1.96-0.878,1.96-1.96V54.287h14.654
		c1.083,0,1.96-0.877,1.96-1.96l0.006-15.803c0-0.52-0.207-1.018-0.574-1.386c-0.367-0.368-0.867-0.575-1.387-0.575H56.842v-9.246
		c0-4.444,1.059-6.7,6.848-6.7l8.397-0.003c1.082,0,1.959-0.878,1.959-1.96V1.98C74.046,0.899,73.17,0.022,72.089,0.02z"/>
	</symbol>
</svg>